<svg width="70" height="70" viewBox="0 0 70 70" fill="none" xmlns="http://www.w3.org/2000/svg">
<rect x="1.5" y="1.50001" width="67" height="67" rx="18.5" stroke="white" stroke-width="3"/>
<path d="M40.7 27.4C40.7 30.548 38.148 33.1 35 33.1C31.852 33.1 29.3 30.548 29.3 27.4C29.3 24.252 31.852 21.7 35 21.7C38.148 21.7 40.7 24.252 40.7 27.4Z" fill="white"/>
<path d="M50.2 31.2C50.2 33.2987 48.4987 35 46.4 35C44.3013 35 42.6 33.2987 42.6 31.2C42.6 29.1013 44.3013 27.4 46.4 27.4C48.4987 27.4 50.2 29.1013 50.2 31.2Z" fill="white"/>
<path d="M42.6 44.5C42.6 40.3026 39.1974 36.9 35 36.9C30.8027 36.9 27.4 40.3026 27.4 44.5V50.2H42.6V44.5Z" fill="white"/>
<path d="M27.4 31.2C27.4 33.2987 25.6987 35 23.6 35C21.5013 35 19.8 33.2987 19.8 31.2C19.8 29.1013 21.5013 27.4 23.6 27.4C25.6987 27.4 27.4 29.1013 27.4 31.2Z" fill="white"/>
<path d="M46.4 50.2V44.5C46.4 42.4971 45.8835 40.6149 44.9764 38.9792C45.4315 38.8622 45.9085 38.8 46.4 38.8C49.548 38.8 52.1 41.352 52.1 44.5V50.2H46.4Z" fill="white"/>
<path d="M25.0236 38.9792C24.1165 40.6149 23.6 42.4971 23.6 44.5V50.2H17.9V44.5C17.9 41.352 20.452 38.8 23.6 38.8C24.0916 38.8 24.5686 38.8622 25.0236 38.9792Z" fill="white"/>
</svg>
