<svg width="70" height="70" viewBox="0 0 70 70" fill="none" xmlns="http://www.w3.org/2000/svg">
<rect x="1.5" y="1.5" width="67" height="67" rx="18.5" stroke="white" stroke-width="3"/>
<path fill-rule="evenodd" clip-rule="evenodd" d="M22.4 22.4C22.4 20.0804 24.2804 18.2 26.6 18.2H43.4C45.7196 18.2 47.6 20.0804 47.6 22.4V47.6C48.7598 47.6 49.7 48.5402 49.7 49.7C49.7 50.8598 48.7598 51.8 47.6 51.8H40.2C39.6477 51.8 39.2 51.3523 39.2 50.8V45.5C39.2 44.3402 38.2598 43.4 37.1 43.4H32.9C31.7402 43.4 30.8 44.3402 30.8 45.5V50.8C30.8 51.3523 30.3523 51.8 29.8 51.8H22.4C21.2402 51.8 20.3 50.8598 20.3 49.7C20.3 48.5402 21.2402 47.6 22.4 47.6V22.4ZM28.7 24.5H32.9V28.7H28.7V24.5ZM32.9 32.9H28.7V37.1H32.9V32.9ZM37.1 24.5H41.3V28.7H37.1V24.5ZM41.3 32.9H37.1V37.1H41.3V32.9Z" fill="white"/>
</svg>
