<svg width="15" height="17" viewBox="0 0 15 17" fill="none" xmlns="http://www.w3.org/2000/svg">
<path fill-rule="evenodd" clip-rule="evenodd" d="M6.40086 0.36792C6.0203 0.36792 5.67241 0.582932 5.50222 0.923314L4.7752 2.37735H1.37728C0.822386 2.37735 0.372559 2.82718 0.372559 3.38207C0.372559 3.93696 0.822386 4.38679 1.37728 4.38679L1.37728 14.434C1.37728 15.5437 2.27693 16.4434 3.38671 16.4434H11.4244C12.5342 16.4434 13.4339 15.5437 13.4339 14.434V4.38679C13.9888 4.38679 14.4386 3.93696 14.4386 3.38207C14.4386 2.82718 13.9888 2.37735 13.4339 2.37735H10.036L9.30894 0.923314C9.13875 0.582932 8.79085 0.36792 8.4103 0.36792H6.40086ZM4.39143 6.39622C4.39143 5.84133 4.84125 5.3915 5.39614 5.3915C5.95103 5.3915 6.40086 5.84133 6.40086 6.39622V12.4245C6.40086 12.9794 5.95103 13.4292 5.39614 13.4292C4.84125 13.4292 4.39143 12.9794 4.39143 12.4245V6.39622ZM9.41501 5.3915C8.86012 5.3915 8.41029 5.84133 8.41029 6.39622V12.4245C8.41029 12.9794 8.86012 13.4292 9.41501 13.4292C9.9699 13.4292 10.4197 12.9794 10.4197 12.4245V6.39622C10.4197 5.84133 9.9699 5.3915 9.41501 5.3915Z" fill="#FF0000"/>
</svg>
