<svg width="70" height="70" viewBox="0 0 70 70" fill="none" xmlns="http://www.w3.org/2000/svg">
<rect x="1.5" y="1.5" width="67" height="67" rx="18.5" stroke="white" stroke-width="3"/>
<path d="M58 51.8531H13V55.4742H58V51.8531Z" fill="white"/>
<path d="M19.8695 48.9914V41.6719C17.6054 42.8109 16.1429 45.1172 16.1429 47.7117V50.4047H20.2492C20.0101 49.9828 19.8695 49.5117 19.8695 48.9914ZM54.857 47.7117C54.857 45.1172 53.4015 42.8109 51.1304 41.6719V48.9984C51.1304 49.5117 50.9828 49.9828 50.7437 50.4047H54.85V47.7117H54.857ZM22.7242 50.4047H48.2758C49.0492 50.4047 49.682 49.7719 49.682 48.9984V35.3367C49.682 34.7461 49.2109 34.275 48.6273 34.275H32.6664C32.6594 34.275 32.6594 34.275 32.6523 34.275H22.3726C21.789 34.275 21.3179 34.7461 21.3179 35.3367V48.9984C21.3179 49.7719 21.9508 50.4047 22.7242 50.4047ZM30.782 40.0687H40.2179C40.6187 40.0687 40.9422 40.3922 40.9422 40.793C40.9422 41.2008 40.6187 41.5172 40.2179 41.5172H30.782C30.3812 41.5172 30.0578 41.2008 30.0578 40.793C30.0578 40.3922 30.3812 40.0687 30.782 40.0687ZM30.782 43.1484H40.2179C40.6187 43.1484 40.9422 43.4719 40.9422 43.8727C40.9422 44.2805 40.6187 44.5969 40.2179 44.5969H30.782C30.3812 44.5969 30.0578 44.2805 30.0578 43.8727C30.0578 43.4789 30.3812 43.1484 30.782 43.1484ZM32.1179 19.8047L28.9047 22.6805V23.032C28.9047 27.6023 30.4234 31.3289 32.8844 32.8336H38.1297C40.4219 31.4273 41.8984 28.0734 42.0742 23.8969C37.8273 24.3469 33.5523 21.0492 32.1179 19.8047Z" fill="white"/>
<path d="M27.4492 23.025C27.4492 22.7719 27.4492 22.5047 27.4773 22.2656C27.4914 22.0828 27.5758 21.9141 27.7094 21.8016L31.6258 18.293C31.907 18.0398 32.3359 18.0469 32.6101 18.307C32.6664 18.3563 38.0383 23.4469 42.6367 22.3219C42.8547 22.2727 43.0867 22.3219 43.2625 22.4555C43.4383 22.5961 43.5367 22.807 43.5367 23.032C43.5367 27.1523 42.3625 30.6961 40.3797 32.8336H46.0187V24.0445C46.0187 21.218 44.9289 18.5813 42.9461 16.6125C40.9492 14.6227 38.3054 13.5258 35.5 13.5258C29.6922 13.5258 24.9672 18.2438 24.9672 24.0445V32.8266H30.6133C28.6304 30.6891 27.4492 27.1453 27.4492 23.025Z" fill="white"/>
</svg>
