<svg width="70" height="70" viewBox="0 0 70 70" fill="none" xmlns="http://www.w3.org/2000/svg">
<path d="M21.9393 52.2462C21.9393 52.2462 21.9049 53.2 22.7314 53.2C23.7598 53.2 32.2594 53.1871 32.2594 53.1871L32.2738 44.3752C32.2738 44.3752 32.1391 42.9235 33.3867 42.9235H37.3415C38.8182 42.9235 38.728 44.3752 38.728 44.3752L38.7108 53.1596C38.7108 53.1596 46.7721 53.1596 48.0383 53.1596C49.0868 53.1596 49.0396 51.973 49.0396 51.973V35.7234L35.8933 22.5274L21.9393 35.725V52.2462Z" fill="white"/>
<path d="M16.8 34.4964C16.8 34.4964 17.9043 36.96 20.3174 34.4964L34.7301 19.7518L48.2419 34.4043C51.0333 36.8388 52.08 34.4043 52.08 34.4043L34.7301 15.4L16.8 34.4964Z" fill="white"/>
<path d="M50.1353 19.7178H46.4126L46.4284 24.8148L50.1353 28.3664V19.7178Z" fill="white"/>
<rect x="1.5" y="1.5" width="67" height="67" rx="18.5" stroke="white" stroke-width="3"/>
</svg>
