<svg width="15" height="17" viewBox="0 0 15 17" fill="none" xmlns="http://www.w3.org/2000/svg">
<path fill-rule="evenodd" clip-rule="evenodd" d="M1.566 0.36792C2.12089 0.36792 2.57071 0.817747 2.57071 1.37264V3.4838C3.8468 2.18132 5.62558 1.37264 7.5943 1.37264C10.6581 1.37264 13.2619 3.33115 14.2269 6.0614C14.4118 6.58458 14.1376 7.15859 13.6144 7.34351C13.0912 7.52842 12.5172 7.25421 12.3323 6.73104C11.6422 4.77854 9.78003 3.38207 7.5943 3.38207C5.95165 3.38207 4.49177 4.17079 3.57478 5.3915H6.58958C7.14447 5.3915 7.5943 5.84133 7.5943 6.39622C7.5943 6.95111 7.14447 7.40094 6.58958 7.40094H1.566C1.01111 7.40094 0.561279 6.95111 0.561279 6.39622V1.37264C0.561279 0.817747 1.01111 0.36792 1.566 0.36792ZM1.5742 9.4678C2.09737 9.28289 2.67139 9.5571 2.85631 10.0803C3.54642 12.0328 5.40857 13.4292 7.5943 13.4292C9.23694 13.4292 10.6968 12.6405 11.6138 11.4198L8.59902 11.4198C8.04413 11.4198 7.5943 10.97 7.5943 10.4151C7.5943 9.8602 8.04413 9.41037 8.59902 9.41037H13.6226C13.8891 9.41037 14.1446 9.51623 14.333 9.70465C14.5215 9.89307 14.6273 10.1486 14.6273 10.4151V15.4387C14.6273 15.9936 14.1775 16.4434 13.6226 16.4434C13.0677 16.4434 12.6179 15.9936 12.6179 15.4387V13.3275C11.3418 14.63 9.56302 15.4387 7.5943 15.4387C4.53051 15.4387 1.92674 13.4802 0.961731 10.7499C0.776816 10.2267 1.05103 9.65272 1.5742 9.4678Z" fill="#4D9841"/>
</svg>
