<svg width="70" height="70" viewBox="0 0 70 70" fill="none" xmlns="http://www.w3.org/2000/svg">
<rect x="1.5" y="1.5" width="67" height="67" rx="18.5" stroke="white" stroke-width="3"/>
<path d="M48.8538 14.3991C48.6808 14.3991 48.505 14.4637 48.3616 14.6058L46.75 16.2187L44.9317 14.4005C44.6575 14.1262 44.2975 13.9884 43.9375 13.9884C43.5775 13.9884 43.2175 14.1262 42.9433 14.4005L41.125 16.2187L39.3067 14.4005C39.0325 14.1262 38.6725 13.9884 38.3125 13.9884C37.9525 13.9884 37.5925 14.1262 37.3183 14.4005L35.5 16.2187L33.6817 14.4005C33.4075 14.1262 33.0475 13.9884 32.6875 13.9884C32.3275 13.9884 31.9675 14.1262 31.6933 14.4005L29.875 16.2187L28.0567 14.4005C27.7825 14.1262 27.4225 13.9884 27.0625 13.9884C26.7025 13.9884 26.3425 14.1262 26.0683 14.4005L24.25 16.2187L22.6384 14.6072C22.495 14.4637 22.3192 14.4005 22.1463 14.4005C21.7848 14.3991 21.4375 14.6803 21.4375 15.1036V53.8964C21.4375 54.3197 21.7848 54.6009 22.1463 54.6009C22.3192 54.6009 22.495 54.5362 22.6384 54.3942L24.25 52.7812L26.0683 54.5995C26.3425 54.8737 26.7025 55.0116 27.0625 55.0116C27.4225 55.0116 27.7825 54.8737 28.0567 54.5995L29.875 52.7812L31.6933 54.5995C31.9675 54.8737 32.3275 55.0116 32.6875 55.0116C33.0475 55.0116 33.4075 54.8737 33.6817 54.5995L35.5 52.7812L37.3183 54.5995C37.5925 54.8737 37.9525 55.0116 38.3125 55.0116C38.6725 55.0116 39.0325 54.8737 39.3067 54.5995L41.125 52.7812L42.9433 54.5995C43.2175 54.8737 43.5775 55.0116 43.9375 55.0116C44.2975 55.0116 44.6575 54.8737 44.9317 54.5995L46.75 52.7812L48.3616 54.3928C48.505 54.5362 48.6808 54.5995 48.8538 54.5995C49.2152 54.5995 49.5625 54.3183 49.5625 53.895V15.1036C49.5625 14.6803 49.2152 14.3991 48.8538 14.3991ZM35.5 22.5469C35.5 22.935 35.185 23.25 34.7969 23.25H27.7656C27.3775 23.25 27.0625 22.935 27.0625 22.5469C27.0625 22.1587 27.3775 21.8437 27.7656 21.8437H34.7969C35.185 21.8437 35.5 22.1587 35.5 22.5469ZM35.5 35.2031C35.5 35.5912 35.185 35.9062 34.7969 35.9062H27.7656C27.3775 35.9062 27.0625 35.5912 27.0625 35.2031C27.0625 34.815 27.3775 34.5 27.7656 34.5H34.7969C35.185 34.5 35.5 34.815 35.5 35.2031ZM27.0625 26.7656C27.0625 26.3775 27.3775 26.0625 27.7656 26.0625H31.9844C32.3725 26.0625 32.6875 26.3775 32.6875 26.7656C32.6875 27.1537 32.3725 27.4687 31.9844 27.4687H27.7656C27.3775 27.4687 27.0625 27.1537 27.0625 26.7656ZM43.9375 26.7656C43.9375 27.1537 43.6225 27.4687 43.2344 27.4687H41.8281C41.44 27.4687 41.125 27.1537 41.125 26.7656C41.125 26.3775 41.44 26.0625 41.8281 26.0625H43.2344C43.6225 26.0625 43.9375 26.3775 43.9375 26.7656ZM43.9375 22.5469C43.9375 22.935 43.6225 23.25 43.2344 23.25H41.8281C41.44 23.25 41.125 22.935 41.125 22.5469C41.125 22.1587 41.44 21.8437 41.8281 21.8437H43.2344C43.6225 21.8437 43.9375 22.1587 43.9375 22.5469ZM43.9375 30.9844C43.9375 31.3725 43.6225 31.6875 43.2344 31.6875H41.8281C41.44 31.6875 41.125 31.3725 41.125 30.9844C41.125 30.5962 41.44 30.2812 41.8281 30.2812H43.2344C43.6225 30.2812 43.9375 30.5962 43.9375 30.9844ZM43.9375 35.2031C43.9375 35.5912 43.6225 35.9062 43.2344 35.9062H41.8281C41.44 35.9062 41.125 35.5912 41.125 35.2031C41.125 34.815 41.44 34.5 41.8281 34.5H43.2344C43.6225 34.5 43.9375 34.815 43.9375 35.2031ZM43.9375 43.6406C43.9375 44.0287 43.6225 44.3437 43.2344 44.3437H41.8281C41.44 44.3437 41.125 44.0287 41.125 43.6406C41.125 43.2525 41.44 42.9375 41.8281 42.9375H43.2344C43.6225 42.9375 43.9375 43.2525 43.9375 43.6406ZM32.6875 43.6406C32.6875 44.0287 32.3725 44.3437 31.9844 44.3437H27.7656C27.3775 44.3437 27.0625 44.0287 27.0625 43.6406C27.0625 43.2525 27.3775 42.9375 27.7656 42.9375H31.9844C32.3725 42.9375 32.6875 43.2525 32.6875 43.6406ZM27.0625 30.9844C27.0625 30.5962 27.3775 30.2812 27.7656 30.2812H33.3906C33.7788 30.2812 34.0938 30.5962 34.0938 30.9844C34.0938 31.3725 33.7788 31.6875 33.3906 31.6875H27.7656C27.3775 31.6875 27.0625 31.3725 27.0625 30.9844Z" fill="white"/>
</svg>
