<svg width="70" height="70" viewBox="0 0 70 70" fill="none" xmlns="http://www.w3.org/2000/svg">
<rect x="1.5" y="1.5" width="67" height="67" rx="18.5" stroke="white" stroke-width="3"/>
<path d="M44.8681 30.8078L30.0425 30.8078C28.0064 30.8078 26.3502 32.464 26.3502 34.4999C26.3502 36.5358 28.0064 38.1921 30.0423 38.1921H44.8681L42.418 41.8674C42.2045 42.1875 42.1845 42.5992 42.3663 42.9386C42.5478 43.2778 42.9013 43.4897 43.2862 43.4897L50.3495 43.4897C50.6983 43.4897 51.0242 43.3153 51.2177 43.025L56.5151 35.0787C56.7489 34.7281 56.7489 34.2717 56.5151 33.9211L51.2177 25.9749C51.0242 25.6846 50.6983 25.5102 50.3495 25.5102H43.2862C42.9013 25.5102 42.5478 25.722 42.3663 26.0613C42.1846 26.4007 42.2045 26.8123 42.418 27.1325L44.8681 30.8078Z" fill="white"/>
<path d="M17.318 57L40.3611 57C40.9183 57 41.3698 56.5485 41.3698 55.9914L41.3698 44.7707C41.0719 44.525 40.8186 44.221 40.6296 43.8681C40.104 42.8863 40.1613 41.7007 40.779 40.7748L41.1877 40.1618H30.0423C26.9203 40.1618 24.3805 37.6219 24.3805 34.4999C24.3805 31.3779 26.9203 28.8381 30.0423 28.8381L41.1877 28.8381L40.7793 28.2255C40.1614 27.2991 40.104 26.1137 40.6296 25.132C40.8186 24.779 41.0719 24.475 41.3699 24.2293V13.0086C41.3699 12.4515 40.9184 12 40.3613 12L17.318 12C16.7609 12 16.3094 12.4515 16.3094 13.0086L16.3094 55.9914C16.3094 56.5485 16.7609 57 17.318 57Z" fill="white"/>
</svg>
