<svg width="70" height="70" viewBox="0 0 70 70" fill="none" xmlns="http://www.w3.org/2000/svg">
<rect x="1.5" y="1.50001" width="67" height="67" rx="18.5" stroke="white" stroke-width="3"/>
<path fill-rule="evenodd" clip-rule="evenodd" d="M36 18C37.1046 18 38 18.8954 38 20V22.6459L45.9089 25.8095L49.1056 24.2111C50.0935 23.7172 51.2949 24.1176 51.7889 25.1056C52.2828 26.0935 51.8824 27.2949 50.8944 27.7889L48.4281 29.022L51.9045 39.8614C52.1455 40.613 51.922 41.436 51.3338 41.9624C49.9198 43.228 48.0477 44 46 44C43.9523 44 42.0802 43.228 40.6662 41.9624C40.078 41.436 39.8545 40.613 40.0956 39.8614L43.5262 29.1645L38 26.9541V46H42C43.1046 46 44 46.8954 44 48C44 49.1046 43.1046 50 42 50H30C28.8954 50 28 49.1046 28 48C28 46.8954 28.8954 46 30 46H34V26.9541L28.4738 29.1645L31.9045 39.8614C32.1455 40.613 31.922 41.436 31.3338 41.9624C29.9198 43.228 28.0477 44 26 44C23.9523 44 22.0802 43.228 20.6662 41.9624C20.078 41.436 19.8545 40.613 20.0956 39.8614L23.5719 29.022L21.1056 27.7889C20.1176 27.2949 19.7172 26.0935 20.2112 25.1056C20.7051 24.1176 21.9065 23.7172 22.8944 24.2111L26.0911 25.8095L34 22.6459V20C34 18.8954 34.8954 18 36 18ZM26 34.549L24.3635 39.6515C24.8627 39.8757 25.4161 40 26 40C26.584 40 27.1373 39.8757 27.6365 39.6515L26 34.549ZM46 34.549L44.3635 39.6515C44.8627 39.8757 45.4161 40 46 40C46.584 40 47.1373 39.8757 47.6365 39.6515L46 34.549Z" fill="white"/>
</svg>
